<?xml version="1.0" encoding="utf-8"?>
<!-- Generator: Adobe Illustrator 16.0.4, SVG Export Plug-In . SVG Version: 6.00 Build 0)  -->
<!DOCTYPE svg PUBLIC "-//W3C//DTD SVG 1.1//EN" "http://www.w3.org/Graphics/SVG/1.1/DTD/svg11.dtd">
<svg version="1.1" id="Layer_1" xmlns="http://www.w3.org/2000/svg" xmlns:xlink="http://www.w3.org/1999/xlink" x="0px" y="0px"
	 width="125px" height="80px" viewBox="0 0 125 80" enable-background="new 0 0 125 80" xml:space="preserve">
<g>
	<rect fill="#B45050" width="125" height="80"/>
	<g>
		<g>
			<path fill="#FFFFFF" d="M7.871,7.711c0.5,0,1.048,0.079,1.5,0.079c0.564,0,0.967-0.063,1.4-0.063
				c0.196,0,0.276,0.032,0.276,0.096c0,0.063-0.128,0.128-0.242,0.142c-0.628,0.129-0.678,0.224-0.725,1.303
				c-0.017,0.27-0.032,1.779-0.032,3.223c0,1.493,0.016,3.033,0.032,3.335c0.047,0.636,0.081,1.062,0.209,1.237
				c0.177,0.24,0.629,0.399,1.886,0.414c0.661,0,1.08-0.015,1.355-0.08c0.338-0.079,0.725-0.509,1.048-1.081
				c0.128-0.189,0.209-0.253,0.275-0.253c0.078,0,0.047,0.237-0.035,0.477c-0.048,0.11-0.369,1.015-0.435,1.126
				c-0.065,0.111-0.226,0.16-0.37,0.16c-0.163,0-1.371,0.016-2.161-0.033c-0.807-0.031-1.918-0.079-2.547-0.079
				c-0.484,0-1.242,0.079-1.452,0.079s-0.354-0.016-0.354-0.111c0-0.079,0.129-0.112,0.274-0.143
				c0.676-0.109,0.79-0.318,0.838-0.809c0.063-0.652,0.063-1.683,0.063-3.874c0-2.159,0-3.224-0.031-3.779
				c-0.048-0.905-0.129-1-0.791-1.113c-0.21-0.047-0.257-0.093-0.257-0.159C7.596,7.758,7.708,7.711,7.871,7.711z"/>
			<path fill="#FFFFFF" d="M21.289,7.695c0.047,0.302,0.209,0.778,0.42,1.318c1.047,2.763,2.03,5.241,2.98,7.352
				c0.404,0.903,0.565,1.047,0.968,1.127c0.195,0.047,0.275,0.11,0.275,0.16c0,0.078-0.162,0.125-0.291,0.125
				c-0.354,0-0.629-0.063-1.467-0.063c-0.693,0-1.274,0.079-1.676,0.079c-0.178,0-0.292-0.046-0.292-0.111
				c0-0.079,0.145-0.143,0.307-0.157c0.596-0.095,0.758-0.351,0.724-0.715c-0.046-0.301-0.578-1.697-1.096-3.016
				c-0.047-0.11-0.16-0.193-0.223-0.193c-0.63,0.033-2.565,0.033-2.919,0.033c-0.08,0-0.177,0.16-0.227,0.269
				c-0.162,0.381-0.612,1.528-0.839,2.29c-0.159,0.554-0.159,0.871,0.018,1.047c0.143,0.158,0.371,0.204,0.692,0.286
				c0.16,0.03,0.243,0.095,0.243,0.157c0,0.08-0.146,0.111-0.339,0.111c-0.305,0-0.951-0.079-1.516-0.079
				c-0.402,0-0.726,0.079-1.128,0.079c-0.177,0-0.29-0.031-0.29-0.111c0-0.079,0.161-0.112,0.322-0.143
				c0.726-0.159,0.905-0.3,1.516-1.634c0.482-1.016,1.887-4.462,2.789-6.781c0.066-0.205,0.081-0.318,0.081-0.443
				c0-0.062,0.033-0.145,0.064-0.16c0.227-0.142,0.581-0.508,0.662-0.841c0.032-0.094,0.048-0.158,0.128-0.158
				C21.223,7.521,21.274,7.585,21.289,7.695z M21.789,12.92c-0.597-1.668-1.08-2.78-1.291-3.272
				c-0.048-0.127-0.079-0.08-0.128,0.032c-0.339,0.793-1.016,2.683-1.242,3.317c-0.017,0.048-0.017,0.128,0.048,0.128
				c0.322,0.017,0.726,0.017,1.259,0.017c0.563,0,1.192,0,1.337-0.048C21.789,13.094,21.821,13.013,21.789,12.92z"/>
			<path fill="#FFFFFF" d="M30.355,7.741c0.193,0,0.241,0.064,0.241,0.113c0,0.046-0.129,0.109-0.274,0.126
				c-0.644,0.143-0.694,0.35-0.708,1.731c-0.017,0.459-0.033,2.08-0.017,2.524c0,0.19,0.049,0.223,0.13,0.19
				c0.225-0.19,0.419-0.332,0.757-0.651c0.597-0.589,2.562-2.556,2.967-3.048c0.161-0.193,0.257-0.304,0.257-0.414
				c0-0.143-0.163-0.19-0.517-0.271c-0.176-0.032-0.256-0.094-0.256-0.143c0-0.062,0.095-0.127,0.256-0.127
				c0.34,0,0.613,0.031,1.032,0.016c0.615-0.031,1.307-0.079,1.583-0.079c0.177,0,0.224,0.047,0.224,0.094
				c0,0.065-0.096,0.111-0.275,0.145c-0.677,0.143-1.146,0.347-1.869,0.982c-0.659,0.557-2.08,1.906-2.982,2.829
				c-0.033,0.046-0.064,0.093-0.064,0.142c0,0.031,0.032,0.079,0.096,0.16c0.628,0.713,3.532,4.032,4.29,4.779
				c0.515,0.477,0.79,0.556,1.208,0.651c0.241,0.062,0.322,0.127,0.322,0.189c0,0.095-0.162,0.128-0.306,0.128
				c-0.452,0-1.403-0.096-1.982-0.096c-0.548,0-1.016,0.048-1.226,0.048c-0.195,0-0.322-0.048-0.322-0.127
				c0-0.047,0.048-0.11,0.272-0.173c0.354-0.081,0.42-0.159,0.42-0.255c0-0.096-0.096-0.239-0.243-0.411
				c-1.193-1.414-3.241-3.639-3.513-3.972c-0.114-0.112-0.147-0.144-0.178-0.144c-0.064,0-0.064,0.08-0.064,0.271
				c-0.017,0.222-0.017,1.206-0.017,1.983c0,0.795,0.031,1.684,0.063,2c0.049,0.368,0.243,0.478,0.678,0.573
				c0.243,0.047,0.325,0.095,0.325,0.174c0,0.08-0.163,0.111-0.308,0.111c-0.388,0-0.695-0.079-1.468-0.079
				c-0.547,0-1.128,0.079-1.37,0.079c-0.226,0-0.308-0.046-0.308-0.111c0-0.062,0.066-0.127,0.324-0.174
				c0.451-0.095,0.597-0.269,0.644-0.603c0.033-0.365,0.097-1.351,0.097-4.795c0-1.366,0-3.019-0.049-3.43
				c-0.064-0.556-0.272-0.619-0.708-0.73c-0.128-0.034-0.242-0.08-0.242-0.145c0-0.064,0.097-0.094,0.225-0.094
				c0.386,0,1.048,0.079,1.468,0.079C29.453,7.79,29.824,7.741,30.355,7.741z"/>
			<path fill="#FFFFFF" d="M37.827,7.727c0.386,0,0.983,0.063,1.418,0.063c0.919,0,3.031-0.031,3.676-0.031
				c0.596,0,0.839-0.032,0.984-0.032c0.08,0,0.145,0.096,0.178,0.254c0.014,0.158,0.062,0.824,0.128,1.127
				c0.015,0.095-0.018,0.238-0.066,0.238c-0.062,0-0.112-0.049-0.192-0.223c-0.276-0.651-0.597-0.952-0.886-1
				c-0.34-0.063-2.292-0.063-2.904-0.048c-0.129,0.017-0.192,0.048-0.192,0.636v3.587c0,0.174,0.046,0.239,0.097,0.239h1.95
				c0.692,0,0.918-0.032,1.063-0.127c0.128-0.062,0.257-0.239,0.418-0.619c0.048-0.095,0.097-0.175,0.161-0.175
				c0.066,0,0.083,0.098,0.083,0.175c0,0.095-0.066,0.619-0.083,0.874c-0.031,0.269,0.017,0.794,0.033,0.889
				c0.034,0.24-0.064,0.317-0.097,0.317c-0.062,0-0.097-0.062-0.193-0.302c-0.065-0.172-0.177-0.475-0.437-0.54
				c-0.37-0.078-0.788-0.096-2.885-0.096c-0.097,0-0.111,0.049-0.111,0.272c0,0.809,0.046,3.079,0.046,3.381
				c0,0.176,0.131,0.571,0.419,0.698c0.243,0.112,0.519,0.145,1.563,0.145c1.228,0,1.564-0.017,1.905-0.319
				c0.178-0.175,0.434-0.571,0.596-0.777c0.146-0.191,0.227-0.27,0.291-0.27s0.08,0.11,0.016,0.302
				c-0.097,0.316-0.275,1.032-0.372,1.204c-0.047,0.129-0.144,0.208-0.273,0.208c-1.709,0-3.515-0.063-4.821-0.063
				c-0.547,0-1.499,0.079-1.676,0.079c-0.195,0-0.29-0.046-0.29-0.111c0-0.079,0.113-0.112,0.29-0.143
				c0.515-0.097,0.836-0.286,0.854-0.984c0.08-2.523,0.08-4.367,0.08-7.367c0-0.905-0.196-1.095-0.773-1.207
				c-0.161-0.031-0.242-0.095-0.242-0.159C37.585,7.774,37.679,7.727,37.827,7.727z"/>
			<path fill="#FFFFFF" d="M49.117,7.774c0.693,0,1.387,0,2.047-0.063C51.616,7.663,52.311,7.6,52.68,7.6
				c1.305,0,2.467,0.189,3.58,0.856c1.273,0.794,2.37,2.145,2.37,4.193c0,3.206-2.223,4.619-4.273,5.112
				c-0.434,0.095-1.096,0.127-1.498,0.127c-0.39,0-0.792-0.032-1.243-0.064c-0.483-0.033-0.935-0.079-1.419-0.079
				c-0.434,0-0.951,0.031-1.113,0.031c-0.176,0-0.32-0.031-0.32-0.125c0-0.049,0.08-0.097,0.273-0.127
				c0.581-0.095,0.726-0.222,0.773-0.843c0.048-0.382,0.064-1.667,0.064-3.239c0-2.842-0.033-4.111-0.064-4.604
				c-0.047-0.556-0.13-0.715-0.727-0.827c-0.144-0.015-0.258-0.062-0.258-0.141C48.826,7.805,48.94,7.774,49.117,7.774z
				 M51.455,8.028c-0.08,0.033-0.177,0.144-0.177,0.445c-0.032,0.525-0.05,1.033-0.05,3.954c0,1.62,0.05,2.636,0.096,3.414
				c0.067,0.762,0.163,1.142,0.566,1.428c0.226,0.193,0.709,0.366,1.224,0.366c0.661,0,1.242-0.127,1.708-0.396
				c0.954-0.509,2.242-1.746,2.242-4.336c0-1.443-0.467-2.842-1.482-3.779c-0.905-0.809-1.837-1.238-3.177-1.238
				C52.035,7.886,51.616,7.964,51.455,8.028z"/>
			<path fill="#FFFFFF" d="M60.635,7.727c0.598,0,0.968,0.063,1.449,0.063c0.583,0,1.1-0.063,1.471-0.063
				c0.145,0,0.241,0.032,0.241,0.079c0,0.065-0.082,0.127-0.26,0.159c-0.645,0.097-0.659,0.333-0.691,0.987
				c-0.051,0.776-0.032,2.603-0.032,3.555c0,2.35,0.032,3.651,0.063,4.144c0.032,0.619,0.144,0.716,0.612,0.842
				c0.21,0.047,0.273,0.095,0.273,0.16c0,0.094-0.129,0.11-0.322,0.11c-0.308,0-0.677-0.048-1.192-0.048
				c-0.87,0-1.323,0.079-1.63,0.079c-0.177,0-0.288-0.031-0.288-0.111c0-0.047,0.063-0.094,0.354-0.174
				c0.595-0.111,0.694-0.365,0.726-1.334c0.031-0.904,0.016-5.224,0.016-5.922c0-0.776-0.047-1.364-0.08-1.604
				c-0.067-0.508-0.243-0.586-0.759-0.697c-0.128-0.049-0.193-0.096-0.193-0.145C60.394,7.758,60.491,7.727,60.635,7.727z"/>
			<path fill="#FFFFFF" d="M70.893,7.805c0.082,0.017,0.112,0.127,0.112,0.176c0,0.429,0.048,0.906,0.081,1.079
				c0.031,0.191-0.033,0.318-0.098,0.318c-0.049,0-0.096-0.08-0.146-0.254c-0.129-0.411-0.29-0.729-0.614-0.952
				c-0.353-0.271-0.9-0.413-1.305-0.413c-0.773,0-1.886,0.588-1.886,1.904c0,0.826,0.501,1.367,1.127,1.796
				c0.597,0.396,1.112,0.744,1.629,1.112c0.63,0.458,1.599,1.175,1.599,2.587c0,1.793-1.727,2.841-3.436,2.841
				c-0.758,0-1.725-0.19-2.227-0.445c-0.16-0.093-0.227-0.204-0.274-0.397c-0.015-0.253-0.146-0.842-0.161-1.222
				c-0.016-0.189,0.018-0.301,0.083-0.301c0.079,0,0.127,0.095,0.192,0.316c0.291,1.192,1.338,1.763,2.355,1.763
				c1.272,0,2.11-0.968,2.11-2.017c0-1.031-0.759-1.65-1.904-2.397c-1.321-0.873-2.255-1.73-2.255-3.111
				c0-0.842,0.402-1.556,1.031-2.033c0.451-0.351,1.16-0.651,2.096-0.651C69.795,7.504,70.617,7.711,70.893,7.805z"/>
			<path fill="#FFFFFF" d="M79.746,7.774c0.951,0,1.227-0.033,1.484-0.174c0.062-0.048,0.127-0.063,0.146-0.033
				c0.017,0.048,0.031,0.081,0.017,0.207c-0.049,0.19-0.049,0.715-0.049,1.254c0,0.239-0.064,0.35-0.111,0.35
				c-0.065,0-0.114-0.142-0.131-0.238c-0.047-0.272-0.177-0.62-0.306-0.761c-0.146-0.127-0.389-0.207-1.437-0.207
				c-0.545,0-1.305,0-1.563,0.032c-0.08,0.031-0.097,0.143-0.097,0.269c0,0.604-0.031,4.351-0.031,5.034
				c-0.018,0.907,0.049,2.763,0.098,3.239c0.063,0.523,0.209,0.635,0.772,0.793c0.194,0.048,0.276,0.08,0.276,0.16
				c0,0.094-0.1,0.111-0.31,0.111c-0.37,0-0.937-0.096-1.612-0.096c-0.886,0-1.388,0.096-1.644,0.096
				c-0.211,0-0.292-0.08-0.292-0.144c0-0.078,0.146-0.126,0.324-0.158c0.791-0.095,0.887-0.334,0.934-1.081
				c0.098-1.555,0.098-7.843,0.067-8.049c-0.019-0.144-0.05-0.191-0.099-0.191c-0.111-0.016-0.483-0.048-1.209-0.048
				c-0.613,0-1.018,0.032-1.322,0.064c-0.307,0.062-0.519,0.253-0.742,0.888c-0.081,0.191-0.162,0.271-0.227,0.271
				c-0.063,0-0.082-0.126-0.063-0.254c0.08-0.461,0.208-0.937,0.226-1.367c0-0.125,0.016-0.205,0.079-0.237
				c0.05-0.015,0.099,0.016,0.146,0.063c0.062,0.081,0.273,0.144,0.5,0.159c0.242,0.015,1.902,0.063,3.548,0.063L79.746,7.774z"/>
			<path fill="#FFFFFF" d="M88.634,8.266c0.679,0.492,1,1.159,1,1.923c0,1.016-0.548,1.492-0.918,1.762
				c-0.241,0.189-0.661,0.383-0.886,0.46c-0.064,0.032-0.064,0.127,0,0.285c0.307,0.589,1.145,1.985,1.691,2.812
				c0.5,0.714,0.84,1.127,1.179,1.476c0.466,0.479,0.87,0.572,1.19,0.586c0.096,0,0.195,0.05,0.195,0.096
				c0,0.048-0.064,0.096-0.179,0.144c-0.128,0.047-0.45,0.064-0.788,0.064c-1.032,0-1.79-0.382-2.438-1.256
				c-0.658-0.857-1.724-2.65-2.111-3.271c-0.241-0.317-0.418-0.46-0.629-0.491c-0.127-0.032-0.289-0.049-0.596-0.032
				c-0.064,0-0.129,0.079-0.129,0.159c-0.031,0.223-0.031,1.952-0.014,2.525c0,0.904,0.062,1.397,0.126,1.572
				c0.05,0.16,0.178,0.351,0.743,0.445c0.158,0.045,0.24,0.095,0.24,0.157c0,0.064-0.129,0.111-0.307,0.111
				c-0.256,0-0.855-0.079-1.466-0.079c-0.583,0-1.228,0.079-1.515,0.079c-0.18,0-0.293-0.031-0.293-0.111
				c0-0.062,0.099-0.112,0.308-0.157c0.53-0.095,0.692-0.256,0.739-0.89c0.052-0.905,0.084-2.221,0.084-4.017
				c0-2.206-0.063-3.286-0.098-3.842c-0.033-0.461-0.033-0.699-0.709-0.812c-0.146-0.032-0.293-0.063-0.293-0.142
				c0-0.064,0.115-0.096,0.293-0.096c0.225,0,0.742,0.047,1.291,0.047c0.754,0,1.078-0.079,2.11-0.079
				C87.426,7.695,88.104,7.901,88.634,8.266z M85.329,8.076c-0.048,0.031-0.095,0.063-0.112,0.348
				c-0.014,0.271-0.031,3.575-0.031,3.844c0,0.19,0.049,0.27,0.129,0.27c0.078,0.033,0.258,0.033,0.353,0.033
				c0.388-0.016,1.306-0.128,1.661-0.368c0.451-0.3,0.872-0.904,0.872-1.777c0-0.778-0.194-1.381-0.63-1.808
				c-0.483-0.479-1.031-0.654-1.756-0.654C85.622,7.964,85.412,8.028,85.329,8.076z"/>
			<path fill="#FFFFFF" d="M93.284,7.727c0.597,0,0.966,0.063,1.45,0.063c0.582,0,1.098-0.063,1.468-0.063
				c0.146,0,0.243,0.032,0.243,0.079c0,0.065-0.08,0.127-0.26,0.159c-0.644,0.097-0.662,0.333-0.692,0.987
				c-0.05,0.776-0.032,2.603-0.032,3.555c0,2.35,0.032,3.651,0.062,4.144c0.035,0.619,0.146,0.716,0.615,0.842
				c0.209,0.047,0.274,0.095,0.274,0.16c0,0.094-0.131,0.11-0.323,0.11c-0.307,0-0.678-0.048-1.193-0.048
				c-0.869,0-1.321,0.079-1.629,0.079c-0.178,0-0.289-0.031-0.289-0.111c0-0.047,0.065-0.094,0.354-0.174
				c0.595-0.111,0.695-0.365,0.727-1.334c0.032-0.904,0.016-5.224,0.016-5.922c0-0.776-0.047-1.364-0.08-1.604
				c-0.066-0.508-0.243-0.586-0.758-0.697c-0.129-0.049-0.192-0.096-0.192-0.145C93.043,7.758,93.139,7.727,93.284,7.727z"/>
			<path fill="#FFFFFF" d="M107.039,8.251c0.129,0.08,0.178,0.19,0.158,0.284c-0.029,0.367,0.051,1.081,0.051,1.241
				c0,0.158-0.064,0.254-0.1,0.254c-0.062,0-0.11-0.081-0.143-0.207c-0.129-0.541-0.484-1.047-0.773-1.271
				c-0.599-0.524-1.483-0.794-2.453-0.794c-1.047,0-2.014,0.525-2.676,1.193c-0.742,0.792-1.242,2.221-1.242,3.729
				c0,1.367,0.582,2.89,1.451,3.828c0.777,0.825,1.855,1.157,2.709,1.157c0.92,0,1.467-0.189,1.887-0.445
				c0.613-0.364,0.968-0.888,1.226-1.539c0.062-0.189,0.097-0.252,0.162-0.252c0.063,0,0.097,0.14,0.097,0.236
				c0,0.253-0.197,1.032-0.226,1.222c-0.033,0.111-0.081,0.223-0.179,0.27c-0.951,0.524-1.807,0.842-3.127,0.842
				c-1.965,0-3.258-0.697-4.223-1.667c-0.693-0.698-1.355-2.129-1.355-3.509c0-1.889,0.773-3.08,1.807-4.003
				c0.838-0.745,2.289-1.316,3.805-1.316C105.184,7.504,106.491,7.964,107.039,8.251z"/>
			<path fill="#FFFFFF" d="M115.846,7.774c0.953,0,1.229-0.033,1.485-0.174c0.063-0.048,0.13-0.063,0.146-0.033
				c0.018,0.048,0.032,0.081,0.018,0.207c-0.051,0.19-0.051,0.715-0.051,1.254c0,0.239-0.062,0.35-0.111,0.35
				c-0.064,0-0.113-0.142-0.129-0.238c-0.051-0.272-0.178-0.62-0.307-0.761c-0.144-0.127-0.389-0.207-1.437-0.207
				c-0.546,0-1.306,0-1.563,0.032c-0.08,0.031-0.095,0.143-0.095,0.269c0,0.604-0.034,4.351-0.034,5.034
				c-0.015,0.907,0.049,2.763,0.098,3.239c0.064,0.523,0.212,0.635,0.773,0.793c0.192,0.048,0.275,0.08,0.275,0.16
				c0,0.094-0.098,0.111-0.309,0.111c-0.373,0-0.935-0.096-1.611-0.096c-0.887,0-1.387,0.096-1.646,0.096
				c-0.209,0-0.289-0.08-0.289-0.144c0-0.078,0.145-0.126,0.323-0.158c0.789-0.095,0.888-0.334,0.937-1.081
				c0.094-1.555,0.094-7.843,0.062-8.049c-0.018-0.144-0.049-0.191-0.098-0.191c-0.112-0.016-0.482-0.048-1.208-0.048
				c-0.611,0-1.019,0.032-1.324,0.064c-0.306,0.062-0.517,0.253-0.741,0.888c-0.08,0.191-0.16,0.271-0.224,0.271
				c-0.065,0-0.082-0.126-0.065-0.254c0.08-0.461,0.209-0.937,0.225-1.367c0-0.125,0.017-0.205,0.082-0.237
				c0.048-0.015,0.096,0.016,0.146,0.063c0.063,0.081,0.272,0.144,0.498,0.159c0.243,0.015,1.904,0.063,3.55,0.063L115.846,7.774z"
				/>
		</g>
		<g>
			<path fill="#FFFFFF" d="M16.991,24.259c0.139,0.055,0.195,0.219,0.195,0.301c0,0.737,0.083,1.528,0.112,1.832
				c0.055,0.353-0.029,0.545-0.14,0.545c-0.11,0-0.194-0.137-0.25-0.437c-0.223-0.713-0.5-1.257-1.054-1.613
				c-0.611-0.465-1.526-0.709-2.247-0.709c-1.303,0-3.247,1.092-3.247,3.359c0,1.502,0.972,2.486,1.971,3.169
				c1.083,0.709,1.969,1.338,2.856,1.966c1.054,0.737,2.637,1.967,2.637,4.343c0,3.032-2.914,4.863-5.798,4.863
				c-1.22,0-2.913-0.301-3.772-0.767c-0.306-0.162-0.418-0.354-0.471-0.737c-0.056-0.436-0.278-1.337-0.278-1.992
				c-0.026-0.302,0.029-0.52,0.139-0.52s0.192,0.165,0.304,0.545c0.5,2.05,2.304,2.98,4.078,2.98c2.218,0,3.661-1.749,3.661-3.551
				c0-1.859-1.332-2.894-3.329-4.208c-2.136-1.417-3.826-2.896-3.826-5.242c0-1.503,0.666-2.677,1.774-3.524
				c0.75-0.574,1.97-1.092,3.579-1.092C15.164,23.769,16.52,24.122,16.991,24.259z"/>
			<path fill="#FFFFFF" d="M25.541,24.177c0.305,0,0.443,0.082,0.443,0.162c0,0.139-0.221,0.221-0.443,0.274
				c-1.415,0.221-1.36,1.15-1.36,2.43c-0.055,2.599-0.055,6.286,0,7.648c0.029,1.997,0.555,3.605,1.499,4.563
				c1.054,1.092,2.605,1.503,3.912,1.503c3.132,0,5.186-1.584,5.378-6.966c0.057-1.012,0.082-2.294,0.082-3.195
				c0-5.19-0.221-5.546-0.997-5.817c-0.25-0.085-0.528-0.137-0.722-0.167c-0.219-0.025-0.414-0.162-0.414-0.245
				c0-0.137,0.138-0.191,0.442-0.191c0.583,0,1.054,0.082,1.915,0.082c0.609,0,1.331-0.082,1.996-0.082c0.305,0,0.5,0.054,0.5,0.137
				c0,0.137-0.139,0.216-0.582,0.299c-1.11,0.19-1.166,0.739-1.249,1.967c-0.11,1.668-0.11,5.325-0.249,7.021
				c-0.166,2.457-0.444,4.806-2.026,6.473c-1.441,1.503-3.549,1.775-4.881,1.775c-1.47,0-3.215-0.383-4.326-1.256
				c-1.692-1.311-2.302-2.923-2.414-6.256c-0.055-2.076-0.027-6.363-0.111-7.976c-0.108-1.366-0.165-1.527-1.302-1.831
				c-0.139-0.053-0.333-0.135-0.333-0.271c0-0.108,0.25-0.108,0.499-0.108c0.665,0,1.471,0.108,2.469,0.108
				C24.098,24.259,24.901,24.177,25.541,24.177z"/>
			<path fill="#FFFFFF" d="M39.974,24.122c0.636,0.029,2.328,0.137,3.215,0.137c0.113,0,0.251,0.109,0.362,0.383
				c1.193,2.592,5.102,10.242,6.851,13.465c0.081,0.163,0.138,0.055,0.249-0.109c1.637-3.088,5.158-9.833,5.823-11.172
				c0.306-0.684,0.666-1.667,0.833-2.214c0.027-0.053,0.139-0.354,0.276-0.354c0.777,0,2.248-0.164,3.025-0.164
				c0.276,0,0.442,0.056,0.442,0.164c0,0.109-0.221,0.219-0.416,0.246c-1.636,0.381-1.747,0.682-1.829,2.294
				c-0.056,0.928-0.086,4.206-0.086,5.571c0,2.979,0.113,5.683,0.168,6.557c0.11,1.586,0.415,1.831,1.496,2.159
				c0.251,0.083,0.446,0.165,0.446,0.3c0,0.109-0.168,0.164-0.5,0.164c-0.528,0-2.024-0.164-2.772-0.164
				c-1.136,0-1.888,0.057-2.304,0.057c-0.277,0-0.581-0.029-0.581-0.223c0-0.107,0.277-0.218,0.553-0.242
				c1.166-0.302,1.361-0.74,1.444-3.005c0.081-1.476,0.081-8.795,0.081-10.026c0-0.272-0.081-0.272-0.136-0.108
				c-1.859,3.661-5.269,10.216-6.601,13.14c-0.139,0.326-0.25,0.489-0.417,0.489c-0.138,0-0.332-0.437-0.583-0.952
				c-1.303-2.762-4.992-10.354-6.046-12.487c-0.138-0.218-0.194-0.218-0.249,0.139c-0.11,1.583-0.417,8.686-0.417,9.806
				c0,0.9,0,1.448,0.169,1.993c0.138,0.657,0.775,0.955,1.412,1.094c0.306,0.053,0.473,0.162,0.473,0.272
				c0,0.164-0.25,0.219-0.553,0.19c-0.334-0.026-1.331-0.135-2.331-0.135s-1.748,0.163-2.025,0.163c-0.361,0-0.5-0.055-0.5-0.192
				c0-0.08,0.113-0.188,0.5-0.271c0.859-0.166,1.192-0.464,1.498-0.875c0.276-0.407,0.415-1.256,0.582-2.949
				c0.167-1.612,0.555-7.677,0.555-9.424c0-1.638-0.166-2.021-0.637-2.568c-0.5-0.547-1-0.599-1.527-0.739
				c-0.248-0.053-0.443-0.135-0.443-0.244C39.474,24.177,39.724,24.122,39.974,24.122z"/>
			<path fill="#FFFFFF" d="M63.505,24.122c0.638,0.029,2.33,0.137,3.216,0.137c0.111,0,0.25,0.109,0.362,0.383
				c1.19,2.592,5.103,10.242,6.851,13.465c0.082,0.163,0.137,0.055,0.25-0.109c1.637-3.088,5.157-9.833,5.824-11.172
				c0.305-0.684,0.665-1.667,0.833-2.214c0.026-0.053,0.138-0.354,0.277-0.354c0.774,0,2.245-0.164,3.022-0.164
				c0.276,0,0.444,0.056,0.444,0.164c0,0.109-0.224,0.219-0.417,0.246c-1.635,0.381-1.746,0.682-1.83,2.294
				c-0.056,0.928-0.083,4.206-0.083,5.571c0,2.979,0.11,5.683,0.167,6.557c0.111,1.586,0.416,1.831,1.498,2.159
				c0.249,0.083,0.441,0.165,0.441,0.3c0,0.109-0.166,0.164-0.496,0.164c-0.529,0-2.026-0.164-2.773-0.164
				c-1.138,0-1.886,0.057-2.304,0.057c-0.278,0-0.583-0.029-0.583-0.223c0-0.107,0.279-0.218,0.554-0.242
				c1.166-0.302,1.361-0.74,1.444-3.005c0.082-1.476,0.082-8.795,0.082-10.026c0-0.272-0.082-0.272-0.137-0.108
				c-1.859,3.661-5.271,10.216-6.603,13.14c-0.139,0.326-0.25,0.489-0.418,0.489c-0.136,0-0.33-0.437-0.581-0.952
				c-1.303-2.762-4.992-10.354-6.046-12.487c-0.14-0.218-0.194-0.218-0.25,0.139c-0.11,1.583-0.416,8.686-0.416,9.806
				c0,0.9,0,1.448,0.166,1.993c0.14,0.657,0.776,0.955,1.414,1.094c0.306,0.053,0.474,0.162,0.474,0.272
				c0,0.164-0.25,0.219-0.557,0.19c-0.333-0.026-1.331-0.135-2.328-0.135c-1,0-1.748,0.163-2.026,0.163
				c-0.36,0-0.499-0.055-0.499-0.192c0-0.08,0.113-0.188,0.499-0.271c0.861-0.166,1.192-0.464,1.497-0.875
				c0.278-0.407,0.418-1.256,0.584-2.949c0.166-1.612,0.553-7.677,0.553-9.424c0-1.638-0.166-2.021-0.637-2.568
				c-0.502-0.547-0.998-0.599-1.526-0.739c-0.25-0.053-0.444-0.135-0.444-0.244C63.005,24.177,63.256,24.122,63.505,24.122z"/>
			<path fill="#FFFFFF" d="M87.564,24.151c0.662,0,1.523,0.108,2.328,0.108c1.471,0,5.242-0.055,6.353-0.055
				c1.024,0,1.413-0.053,1.69-0.053c0.111,0,0.224,0.163,0.277,0.437c0.025,0.299,0.083,1.312,0.193,1.856
				c0.029,0.164,0,0.41-0.109,0.41c-0.083,0-0.167-0.081-0.305-0.383c-0.473-1.147-0.999-1.556-1.498-1.667
				c-0.639-0.109-4.299-0.109-5.188-0.082c-0.222,0.03-0.332,0.082-0.332,1.065v6.257c0,0.326,0.084,0.436,0.166,0.436h3.494
				c1.276,0,1.61-0.052,1.858-0.191c0.194-0.109,0.444-0.436,0.723-1.036c0.08-0.19,0.166-0.3,0.275-0.3
				c0.085,0,0.14,0.133,0.14,0.3c0,0.162-0.111,1.008-0.168,1.449c-0.055,0.49,0.028,1.335,0.057,1.527
				c0.082,0.38-0.111,0.546-0.168,0.546c-0.109,0-0.136-0.137-0.332-0.575c-0.082-0.243-0.277-0.766-0.692-0.872
				c-0.638-0.137-1.388-0.167-5.132-0.167c-0.194,0-0.223,0.057-0.223,0.522c0,1.391,0.084,5.215,0.084,5.735
				c0,0.301,0.223,1.009,0.719,1.225c0.445,0.193,0.89,0.275,2.746,0.275c2.33,0,2.83-0.053,3.386-0.546
				c0.276-0.273,0.721-0.927,0.997-1.311c0.277-0.355,0.39-0.465,0.5-0.465c0.109,0,0.138,0.193,0.029,0.494
				c-0.168,0.63-0.473,1.776-0.611,2.077c-0.111,0.188-0.25,0.326-0.446,0.326c-2.937,0-6.071-0.109-8.317-0.109
				c-0.945,0-2.496,0.136-2.802,0.136c-0.362,0-0.528-0.08-0.528-0.19c0-0.111,0.193-0.162,0.5-0.245
				c0.942-0.137,1.498-0.492,1.523-1.722c0.139-4.343,0.139-7.346,0.139-12.7c0-1.559-0.332-1.884-1.33-2.104
				c-0.278-0.055-0.416-0.139-0.416-0.246C87.148,24.231,87.341,24.151,87.564,24.151z"/>
			<path fill="#FFFFFF" d="M111.451,25.078c1.193,0.849,1.719,2.022,1.719,3.279c0,1.775-0.941,2.596-1.58,3.058
				c-0.416,0.384-1.164,0.683-1.58,0.846c-0.109,0.058-0.08,0.219,0.026,0.493c0.528,1.038,2.108,3.578,2.995,4.861
				c0.861,1.206,1.443,1.915,2.025,2.486c0.834,0.849,1.555,1.04,2.082,1.067c0.192,0,0.36,0.082,0.36,0.162
				c0,0.055-0.112,0.164-0.308,0.219c-0.248,0.11-0.748,0.137-1.274,0.137c-1.719,0-2.938-0.767-4.048-2.186
				c-1.221-1.583-3.246-4.916-3.799-5.764c-0.36-0.465-0.639-0.709-1-0.764c-0.25-0.055-0.584-0.11-1.166-0.083
				c-0.109,0.028-0.221,0.137-0.25,0.272c-0.057,0.331-0.057,3.499-0.027,4.536c0,1.448,0.111,2.349,0.223,2.594
				c0.084,0.329,0.305,0.627,1.275,0.793c0.307,0.055,0.418,0.134,0.418,0.245c0,0.112-0.225,0.19-0.529,0.19
				c-0.498,0-1.33-0.136-2.355-0.136c-0.998,0-1.998,0.136-2.525,0.136c-0.277,0-0.469-0.056-0.469-0.19
				c0-0.111,0.166-0.19,0.527-0.245c0.914-0.191,1.189-0.441,1.273-1.557c0.084-1.558,0.141-3.746,0.141-7.159
				c0-3.797-0.112-5.517-0.168-6.444c-0.058-0.767-0.086-1.175-1.248-1.367c-0.252-0.055-0.474-0.108-0.474-0.246
				c0-0.11,0.167-0.163,0.501-0.163c0.387,0,1.191,0.08,2.162,0.08c1.164,0,1.914-0.136,3.355-0.136
				C109.398,24.095,110.538,24.421,111.451,25.078z M105.822,24.751c-0.057,0.028-0.139,0.052-0.166,0.518
				c-0.028,0.518-0.057,6.229-0.057,6.693c0,0.356,0.111,0.465,0.223,0.465c0.139,0.052,0.472,0.052,0.664,0.052
				c0.725-0.028,2.334-0.219,2.94-0.599c0.778-0.548,1.556-1.61,1.556-3.088c0-1.393-0.39-2.432-1.11-3.14
				c-0.804-0.766-1.774-1.093-3.163-1.093C106.35,24.56,105.96,24.642,105.822,24.751z"/>
		</g>
		<g>
			<path fill="#FFFFFF" d="M8.862,48.168c0.643,0.039,2.875,0.15,3.747,0.15c0.113,0,0.3,0.109,0.49,0.519
				c1.779,3.804,7.076,14.125,9.914,19.379c0.151,0.263,0.226,0.074,0.377-0.187c2.763-5.182,7.645-14.385,8.591-16.246
				c0.339-0.711,0.906-2.271,1.134-3.02c0.038-0.076,0.151-0.445,0.341-0.445c0.756,0,3.14-0.225,3.707-0.225
				c0.304,0,0.53,0.073,0.53,0.225c0,0.109-0.264,0.258-0.53,0.297c-2.23,0.558-2.421,0.97-2.534,3.203
				c-0.077,1.156-0.113,5.927-0.113,7.826c0,4.062,0.113,7.713,0.188,8.869c0.151,2.2,0.568,2.496,2.044,2.907
				c0.339,0.112,0.565,0.224,0.565,0.41c0,0.149-0.189,0.224-0.68,0.224c-0.455,0-2.612-0.224-3.443-0.224
				c-1.627,0-2.272,0.075-2.838,0.075c-0.417,0-0.833-0.04-0.833-0.301c0-0.148,0.379-0.299,0.795-0.334
				c1.59-0.41,1.856-0.933,1.966-4.1c0.114-2.051,0.114-12.482,0.114-13.975c0-0.482-0.114-0.334-0.188-0.148
				c-2.536,4.918-7.455,14.124-9.382,18.335c-0.19,0.37-0.341,0.597-0.53,0.597c-0.19,0-0.493-0.635-0.91-1.492
				c-1.929-3.951-6.771-13.674-8.398-16.991c-0.19-0.3-0.304-0.3-0.343,0.187c-0.15,2.42-0.604,12.444-0.604,13.524
				c0,1.121,0,1.976,0.227,2.796c0.226,0.895,1.172,1.23,1.93,1.417c0.416,0.072,0.642,0.224,0.642,0.373
				c0,0.187-0.339,0.261-0.754,0.224c-0.38-0.037-1.741-0.186-3.142-0.186c-1.4,0-2.421,0.225-2.799,0.225
				c-0.416,0-0.643-0.074-0.643-0.262c0-0.113,0.19-0.261,0.678-0.336c1.213-0.186,1.629-0.706,2.046-1.266
				c0.378-0.521,0.568-1.825,0.794-3.986c0.228-2.201,0.757-10.771,0.757-12.969c0-2.236-0.266-2.795-0.908-3.541
				c-0.682-0.782-1.4-0.82-2.12-1.008c-0.379-0.073-0.605-0.221-0.605-0.334C8.143,48.207,8.483,48.13,8.862,48.168z"/>
			<path fill="#FFFFFF" d="M47.474,48.243c0.416,0,0.567,0.075,0.567,0.185c0,0.188-0.265,0.301-0.567,0.373
				c-2.08,0.299-1.93,1.828-1.93,3.614c-0.075,3.579-0.075,8.981,0,10.435c0.075,2.463,0.756,4.732,2.119,6.074
				c1.399,1.417,3.518,2.125,5.487,2.125c4.538,0,7.338-2.236,7.604-9.464c0.077-1.381,0.115-3.168,0.115-4.547
				c0-7.155-0.267-7.679-1.363-8.011L58.597,48.8c-0.226-0.034-0.53-0.224-0.53-0.333c0-0.188,0.189-0.224,0.567-0.224
				c0.683,0,1.362,0.075,2.535,0.075c0.794,0,1.78-0.111,2.687-0.111c0.343,0,0.646,0.072,0.646,0.184
				c0,0.187-0.228,0.299-0.796,0.41c-1.476,0.262-1.551,1.045-1.625,2.723c-0.19,2.42-0.153,7.678-0.378,10.359
				c-0.266,2.758-0.567,5.85-2.763,8.158c-1.967,2.053-4.805,2.385-6.584,2.385c-1.891,0-4.237-0.482-5.827-1.711
				c-2.231-1.754-3.102-4.025-3.252-8.275c-0.115-2.608-0.04-9.017-0.19-11.217c-0.15-1.974-0.189-2.123-1.816-2.57
				c-0.115-0.036-0.378-0.149-0.378-0.334c0-0.15,0.301-0.15,0.681-0.15c0.681,0,1.741,0.15,2.988,0.15
				C45.543,48.318,46.715,48.243,47.474,48.243z"/>
			<path fill="#FFFFFF" d="M79.799,48.279c0.188,0.076,0.268,0.298,0.268,0.41c0,1.008,0.11,2.052,0.149,2.424
				c0.074,0.521-0.077,0.742-0.19,0.742c-0.149,0-0.266-0.146-0.338-0.557c-0.229-0.968-0.646-1.751-1.362-2.199
				c-0.872-0.632-2.12-0.893-3.103-0.893c-1.742,0-4.468,1.639-4.468,4.807c0,2.236,1.552,3.613,2.836,4.473
				c1.552,1.004,2.765,1.898,3.938,2.76c1.361,0.967,3.404,2.641,3.404,5.697c0,4.062-3.896,6.559-7.718,6.559
				c-1.516,0-3.823-0.408-4.997-1.042c-0.49-0.263-0.603-0.483-0.718-1.118c-0.074-0.633-0.303-1.602-0.339-2.533
				c-0.039-0.301,0-0.635,0.189-0.635c0.149,0,0.265,0.186,0.414,0.707c0.684,2.835,3.103,3.987,5.525,3.987
				c3.141,0,5.145-2.606,5.145-5.067c0-2.758-1.93-4.099-4.729-5.961c-2.572-1.715-5.032-3.764-5.032-6.896
				c0-2.158,0.871-3.651,2.385-4.805c0.981-0.781,2.688-1.492,4.768-1.492C77.416,47.645,79.232,48.13,79.799,48.279z"/>
			<path fill="#FFFFFF" d="M85.41,48.168c1.056,0,1.777,0.15,2.947,0.15c1.06,0,2.119-0.15,2.951-0.15c0.266,0,0.53,0.075,0.53,0.15
				c0,0.148-0.149,0.298-0.567,0.334c-1.476,0.262-1.629,0.746-1.701,2.309c-0.115,1.977-0.077,6.301-0.077,8.721
				c0,5.479,0.112,8.721,0.19,9.764c0.112,1.418,0.301,1.603,1.435,1.9c0.53,0.112,0.646,0.225,0.646,0.373
				c0,0.188-0.267,0.225-0.721,0.225c-0.34,0-1.438-0.112-2.346-0.112c-1.627,0-2.764,0.185-3.442,0.185
				c-0.341,0-0.567-0.072-0.567-0.262c0-0.109,0.228-0.223,0.869-0.37c1.403-0.3,1.59-0.896,1.631-3.132
				c0.074-2.124,0.035-12.707,0.035-14.684c0-1.824-0.113-2.68-0.188-3.239c-0.113-1.231-0.455-1.38-1.779-1.679
				c-0.265-0.074-0.416-0.148-0.416-0.295C84.84,48.243,85.029,48.168,85.41,48.168z"/>
			<path fill="#FFFFFF" d="M116.74,49.621c0.229,0.15,0.342,0.408,0.342,0.597c-0.113,0.896,0.077,2.386,0.077,2.794
				c0,0.334-0.114,0.596-0.229,0.596c-0.15,0-0.265-0.221-0.341-0.481c-0.299-1.271-1.133-2.461-1.776-2.983
				c-1.401-1.306-3.783-1.936-5.903-1.936c-3.407,0-5.563,1.602-7.04,3.128c-1.438,1.53-2.799,4.881-2.799,8.535
				c0,3.577,1.703,7.08,3.597,9.091c1.892,1.975,4.616,2.76,6.696,2.76c2.117,0,3.52-0.373,4.578-1.006
				c1.476-0.859,2.42-2.164,2.951-3.729c0.151-0.52,0.266-0.67,0.379-0.67c0.15,0,0.228,0.301,0.228,0.562
				c0,0.63-0.455,2.606-0.531,3.056c-0.038,0.148-0.149,0.297-0.304,0.408c-2.268,1.305-4.426,2.16-7.453,2.16
				c-4.464,0-7.264-1.639-9.688-4.062c-1.512-1.525-3.139-5.03-3.139-8.157c0-4.509,1.854-7.416,4.273-9.576
				c1.969-1.754,5.224-3.06,8.553-3.06C112.316,47.645,115.529,48.914,116.74,49.621z"/>
		</g>
	</g>
</g>
<rect id="_x3C_Slice_x3E__1_" fill="none" width="125" height="80"/>
</svg>
